<?xml version="1.0" encoding="UTF-8" standalone="no"?>
<!-- Created with Inkscape (http://www.inkscape.org/) -->

<svg
   width="148mm"
   height="210mm"
   viewBox="0 0 148 210"
   version="1.1"
   id="svg30182"
   inkscape:version="1.2.2 (732a01da63, 2022-12-09)"
   sodipodi:docname="grﾄ［ata_A5.svg"
   inkscape:export-filename="grﾄ［ata_A5.png"
   inkscape:export-xdpi="96"
   inkscape:export-ydpi="96"
   xmlns:inkscape="http://www.inkscape.org/namespaces/inkscape"
   xmlns:sodipodi="http://sodipodi.sourceforge.net/DTD/sodipodi-0.dtd"
   xmlns="http://www.w3.org/2000/svg"
   xmlns:svg="http://www.w3.org/2000/svg">
  <sodipodi:namedview
     id="namedview30184"
     pagecolor="#ffffff"
     bordercolor="#000000"
     borderopacity="0.25"
     inkscape:showpageshadow="2"
     inkscape:pageopacity="0.0"
     inkscape:pagecheckerboard="0"
     inkscape:deskcolor="#d1d1d1"
     inkscape:document-units="mm"
     showgrid="false"
     inkscape:zoom="0.74564394"
     inkscape:cx="396.97231"
     inkscape:cy="454.64059"
     inkscape:window-width="1920"
     inkscape:window-height="1017"
     inkscape:window-x="-8"
     inkscape:window-y="-8"
     inkscape:window-maximized="1"
     inkscape:current-layer="layer1" />
  <defs
     id="defs30179">
    <filter
       inkscape:collect="always"
       style="color-interpolation-filters:sRGB"
       id="filter13113"
       x="-0.15593328"
       y="-0.044177446"
       width="1.2895649"
       height="1.0965924">
      <feGaussianBlur
         inkscape:collect="always"
         stdDeviation="0.11462178"
         id="feGaussianBlur13115" />
    </filter>
  </defs>
  <g
     inkscape:label="Slﾄ］is 1"
     inkscape:groupmode="layer"
     id="layer1">
    <g
       id="g13207"
       inkscape:export-filename="grﾄ［ata_16.06.png"
       inkscape:export-xdpi="96"
       inkscape:export-ydpi="96"
       transform="matrix(6.0656533,0,0,6.0656533,-641.83286,-384.8534)">
      <path
         style="fill:#ffe816;fill-opacity:1;stroke:#ad8a02;stroke-width:0.2;stroke-linecap:butt;stroke-linejoin:miter;stroke-dasharray:none;stroke-opacity:1"
         d="m 126.47365,73.300792 c 0,0 0.60803,0.28064 1.02898,0.11693 0.0468,0.6782 -0.16881,4.96811 -0.8302,5.8933 -0.2869,0.40133 -1.28624,3.04019 -2.40877,3.88209 -0.25844,-0.096 -0.0616,-2.32151 -0.0351,-2.26845 l -0.0468,0.37417 c 0,0 0.30051,-0.27787 0.42095,-0.45603 0.56657,-0.83805 0.71662,-0.92542 1.28624,-2.77125 0.27454,-0.88964 0.72496,-4.06917 0.58465,-4.77076 z"
         id="path142993"
         sodipodi:nodetypes="ccscccsssc" />
      <path
         style="fill:#ada67a;fill-opacity:1;stroke:#afa87f;stroke-width:0.1;stroke-linecap:butt;stroke-linejoin:miter;stroke-dasharray:none;stroke-opacity:1"
         d="m 110.93359,74.961202 9.77539,-2.82971"
         id="path142995" />
      <path
         style="fill:#7098f0;fill-opacity:1;stroke:#000000;stroke-width:0.1;stroke-linecap:butt;stroke-linejoin:miter;stroke-dasharray:none;stroke-opacity:1"
         d="m 116.53456,79.147312 c -0.12059,-0.24521 -0.96097,-1.57575 -1.6838,-0.0175 -0.1472,0.31732 -0.43765,0.91087 0.14617,2.01705 0.19818,0.37551 1.01823,0.76598 1.40901,0.0819 0.31599,-0.55316 0.39756,-0.85943 0.12862,-2.08136 0,-2e-5 0,-5e-5 0,-5e-5 z"
         id="path142997"
         sodipodi:nodetypes="csssscc" />
      <g
         id="g143003"
         transform="translate(39.3371,-79.714344)">
        <path
           style="color:#000000;fill:#ffe816;stroke-width:0.2;-inkscape-stroke:none"
           d="m 82.8452,150.50114 -0.07016,-0.29233 -14.066732,4.10426 v 17.41094 l 0.666504,3.91717 c 0,0 0.748356,1.22777 3.051884,0.80682 2.151521,-0.8419 12.471477,-4.66727 12.471477,-4.66727 l 0.330729,-19.09961 -12.832291,3.68763 0.04961,20.07526"
           id="path142999" />
        <path
           style="color:#000000;fill:#9b8031;-inkscape-stroke:none"
           d="m 82.847656,150.08398 -14.240234,4.1543 v 17.49414 l 0.671875,3.94531 0.0098,0.0156 c 0,0 0.206259,0.33269 0.701172,0.59766 0.494914,0.26496 1.28452,0.46976 2.455078,0.25585 l 0.0098,-0.002 0.0078,-0.004 C 74.609083,175.7012 84.933594,171.875 84.933594,171.875 l 0.0625,-0.0234 0.335937,-19.30469 -13.035156,3.7461 0.04883,20.05078 c -1.081867,0.18051 -1.818804,0.009 -2.261719,-0.22852 -0.450534,-0.2412 -0.61379,-0.51391 -0.617187,-0.51953 l -0.658203,-3.88086 v -17.32617 l 13.892578,-4.05469 0.04687,0.19141 0.195312,-0.0469 z m 2.279297,2.73047 -0.326172,18.89649 c -0.101144,0.0375 -9.936851,3.68444 -12.253906,4.58593 l -0.05078,-19.85351 z"
           id="path143001" />
      </g>
      <path
         style="fill:none;stroke:#7a5b00;stroke-width:0.2;stroke-linecap:butt;stroke-linejoin:miter;stroke-dasharray:none;stroke-opacity:1"
         d="m 121.38717,79.603342 c 0,0 -0.36248,0.0994 -0.69573,0.34348 -0.16663,0.12205 -0.33983,0.29708 -0.48453,0.54757 -0.1447,0.25048 -0.2609,0.57642 -0.31352,1.00029"
         id="path143005"
         sodipodi:nodetypes="cssc" />
      <path
         style="fill:none;stroke:#856000;stroke-width:0.2;stroke-linecap:butt;stroke-linejoin:miter;stroke-dasharray:none;stroke-opacity:1"
         d="m 112.9078,81.706292 c 0,0 1.70225,-0.8837 3.29903,1.77767"
         id="path143007"
         sodipodi:nodetypes="cc" />
      <path
         style="fill:none;stroke:#7b5500;stroke-width:0.2;stroke-linecap:butt;stroke-linejoin:miter;stroke-dasharray:none;stroke-opacity:1"
         d="m 113.32121,84.641512 c 0,0 -0.26458,-1.62058 1.9017,-1.15755"
         id="path143009" />
      <path
         style="fill:#360904;fill-opacity:1;stroke:#000000;stroke-width:0.1;stroke-linecap:butt;stroke-linejoin:miter;stroke-dasharray:none;stroke-opacity:1"
         d="m 119.26607,86.431582 c 0,0 0.67799,0.678 0.83509,1.55443 0.0248,0.58704 -1.52135,1.31051 -1.7942,0.99632 -0.27286,-0.3142 -1.2237,-1.70326 -1.35599,-1.95957 -0.13229,-0.25632 -1.08314,-2.32338 -1.05007,-2.37298 0.0331,-0.0496 0.72761,0.12402 0.72761,0.12402 0,0 2.52181,1.48415 2.63756,1.65778 z"
         id="path143011"
         sodipodi:nodetypes="ccssscc" />
      <path
         style="fill:none;stroke:#7b5405;stroke-width:0.2;stroke-linecap:butt;stroke-linejoin:miter;stroke-dasharray:none;stroke-opacity:1"
         d="m 115.81822,84.525752 c 0,0 1.71979,4.92787 3.62148,5.02709 1.05834,0.0661 1.85209,-0.44649 2.00092,-0.82683 0.0856,-0.17129 0.1577,-0.80121 0.0602,-1.94807 -0.0719,-0.84606 -0.24366,-1.97346 -0.5315,-3.40561"
         id="path143013"
         sodipodi:nodetypes="cccsc" />
      <path
         style="fill:#801c00;fill-opacity:1;stroke:#000000;stroke-width:0;stroke-linecap:butt;stroke-linejoin:miter;stroke-dasharray:none;stroke-opacity:1"
         d="m 120.52189,83.918082 c 0,0 0.77174,2.514 -1.21608,2.53738 -0.19835,0.0819 1.21088,2.31523 1.25116,2.31523 0,0 0.33909,0.47941 0.56126,0.31571 0.22217,-0.1637 0.29233,-0.31571 0.30402,-0.39756 0.0117,-0.0819 0.13834,-1.90671 0.0371,-2.21684 -0.0536,-0.16421 -0.42295,-3.06257 -0.44634,-3.10934 -0.0234,-0.0468 -0.4911,0.55542 -0.4911,0.55542 z"
         id="path143015"
         sodipodi:nodetypes="cccsssscc" />
      <path
         style="fill:none;stroke:#bfa500;stroke-width:0.2;stroke-linecap:butt;stroke-linejoin:miter;stroke-dasharray:none;stroke-opacity:1"
         d="m 121.72627,89.647662 c 0,0 -0.30402,1.44994 -2.33861,0.88868"
         id="path143017" />
      <path
         style="fill:#f6232f;fill-opacity:1;stroke:#914d07;stroke-width:0.1;stroke-linecap:butt;stroke-linejoin:miter;stroke-dasharray:none;stroke-opacity:1"
         d="m 118.25344,88.902232 c 0,0 -0.15868,-0.75231 0.58173,-0.6285 0.16881,0.0282 0.76004,0.0526 1.01144,0.51742 -0.0234,-0.0351 -0.19293,-0.24263 -0.19293,-0.24263 0,0 -0.0568,-0.66293 0.49988,-0.46772 0.11865,0.0416 0.55631,0.16041 0.81266,0.46187 0.0595,0.0699 0.16834,0.26418 0.11865,0.50974 -0.52619,0.31571 -0.72083,0.40311 -1.12062,0.45765 -0.36258,0.0495 -0.68404,0.13537 -1.09037,-0.12768 -0.267,-0.17287 -0.55613,-0.36611 -0.62044,-0.48012 z"
         id="path143019"
         sodipodi:nodetypes="csccsscsscc" />
      <path
         style="fill:#d8ab04;fill-opacity:1;stroke:#b48805;stroke-width:0.2;stroke-linecap:butt;stroke-linejoin:miter;stroke-dasharray:none;stroke-opacity:1"
         d="m 108.3272,77.861562 -0.0165,3.10885 c 0,0 1.88516,1.32292 2.91869,0.95912 v -3.00964 c 0,0 -0.21367,-0.52022 -2.89698,-1.0573 z"
         id="path143021"
         sodipodi:nodetypes="ccccsc" />
      <path
         style="fill:#fde814;fill-opacity:1;stroke:#ad8a02;stroke-width:0.2;stroke-linecap:butt;stroke-linejoin:miter;stroke-dasharray:none;stroke-opacity:1"
         d="m 109.56074,84.591172 -2.94665,3.46114 c 0,0 -0.65481,0.49111 0.56127,1.40316 0.49111,0.44434 2.64263,2.33861 2.64263,2.33861 0,0 0.66293,0.59579 0.35079,-1.56687 -0.0214,-0.14818 -1.44994,-1.44993 -2.43216,-1.94104 l 0.39757,0.19878 c 0,0 0.48854,-1.41162 1.8475,-2.28014 0.21085,-0.13476 0.79513,-1.05238 -0.42095,-1.61364 z"
         id="path143023"
         sodipodi:nodetypes="ccccsccsc" />
      <path
         style="fill:#cca621;fill-opacity:1;stroke:#ab7d00;stroke-width:0.2;stroke-linecap:butt;stroke-linejoin:miter;stroke-dasharray:none;stroke-opacity:1"
         d="m 111.47732,93.325132 0.0292,1.7598 -1.12253,0.006"
         id="path143025"
         sodipodi:nodetypes="ccc" />
      <path
         style="fill:#ffffff;stroke:#7b7e6e;stroke-width:0.2;stroke-linecap:butt;stroke-linejoin:miter;stroke-dasharray:none;stroke-opacity:1"
         d="m 126.1039,69.990212 c 0,0 0.27819,2.10204 1.43575,0.91142 0,-0.0496 0.76033,-1.71607 -0.60893,-2.31702 -0.51546,-0.22623 -1.5875,-0.71107 -1.86862,1.75286 -0.0165,0.47956 0.13229,2.11667 1.67018,2.10013 -0.1819,0.0331 -0.60358,-0.0661 -0.60358,-0.0661 0,0 -0.23978,0.66146 0.32246,0.87644 0.56224,0.21497 1.05834,0.14883 1.05834,0.14883 0,0 0.47955,-0.26459 0.3638,-0.92605 l -0.3638,0.0331 c 0,0 0.51263,0.16536 1.07486,-0.81029 -0.0496,0.0165 1.20717,-0.82682 0.92605,-2.14974 -0.11576,-0.3638 -0.26459,-0.77721 -0.87644,-0.84336 -0.008,0.0414 0.0661,-1.19062 -1.19062,-0.94258 -0.0165,-0.0827 -0.16537,-0.28112 0.0662,-0.57877 0.23151,-0.29766 0.81028,-1.38906 0.5457,-2.282026 -0.0165,-0.0992 -0.64492,-1.5875 -1.70325,0.23151 -0.19844,0.429936 -0.44649,1.041786 -0.4961,1.719786 -0.0496,0.67799 -0.14882,1.43867 -0.0165,1.63711"
         id="path143027"
         sodipodi:nodetypes="ccscccscccccccsccsc" />
      <path
         style="fill:#ffffff;stroke:#403f32;stroke-width:0.2;stroke-linecap:butt;stroke-linejoin:miter;stroke-dasharray:none;stroke-opacity:1"
         d="m 117.43032,77.568212 c 0,0 1.3413,-3.8413 3.05903,-0.22738 0.40214,0.84605 0.28433,1.79242 0.001,2.75031 -0.0658,0.22258 -0.43262,0.41297 -0.5457,1.09141 -0.003,0.0163 -1.10298,0.73871 -2.07863,-0.86532"
         id="path143029"
         sodipodi:nodetypes="csssc" />
      <path
         style="fill:#ffffff;stroke:#413f33;stroke-width:0.2;stroke-linecap:butt;stroke-linejoin:miter;stroke-dasharray:none;stroke-opacity:1"
         d="m 117.45733,77.675162 c -0.51922,-1.2341 -2.93422,-2.48248 -3.57187,1.24023 -0.0838,0.48898 -0.18684,2.09491 0.57878,2.71198 0.34667,0.27941 1.03474,0.89607 1.20716,1.05834 0.13729,0.12922 1.60387,0.58251 2.08359,-1.55443 0.0661,-0.29444 0.34661,-1.92481 -0.29766,-3.45612 z"
         id="path143031"
         sodipodi:nodetypes="ssssss" />
      <path
         style="fill:#769aef;fill-opacity:1;stroke:#000000;stroke-width:0.1;stroke-linecap:butt;stroke-linejoin:miter;stroke-dasharray:none;stroke-opacity:1"
         d="m 119.39836,78.419672 c -0.21596,-0.45748 -0.68572,-1.13279 -1.17822,-0.26045 -0.22372,0.39626 -0.37769,0.96835 0.0455,1.6123 0.14735,0.22423 0.73893,0.89916 1.16995,0.16537 0.0709,-0.12062 0.27699,-0.85163 -0.0372,-1.51722 z"
         id="path143033"
         sodipodi:nodetypes="sssss" />
      <path
         style="fill:#769aef;fill-opacity:1;stroke:#000000;stroke-width:0.1;stroke-linecap:butt;stroke-linejoin:miter;stroke-dasharray:none;stroke-opacity:1"
         d="m 115.22291,78.341122 c -0.34643,0.15186 -1.12974,0.89898 -0.39688,2.59622 0.0789,0.18281 1.28998,0.94227 1.63711,-0.38861 0.13312,-0.51038 0.21736,-1.04901 -0.16536,-1.84381 -0.11344,-0.23558 -0.47129,-0.62838 -1.07487,-0.3638 z"
         id="path143035"
         sodipodi:nodetypes="sssss" />
      <path
         style="fill:#000203;fill-opacity:1;stroke:#000000;stroke-width:0.1;stroke-linecap:butt;stroke-linejoin:miter;stroke-dasharray:none;stroke-opacity:1"
         d="m 118.45578,79.254762 c 0.10654,0.22748 0.33248,0.74795 0.61599,0.43408 0.0746,-0.0826 0.21468,-0.35358 0.13642,-0.7152 -0.0417,-0.19264 -0.0915,-0.47687 -0.33486,-0.57878 -0.0921,-0.0386 -0.33073,0.0786 -0.36794,0.24805 -0.0372,0.1695 -0.13639,0.42655 -0.0496,0.61185 z"
         id="path143037"
         sodipodi:nodetypes="ssssss" />
      <path
         style="fill:#000203;fill-opacity:1;stroke:#000000;stroke-width:0.1;stroke-linecap:butt;stroke-linejoin:miter;stroke-dasharray:none;stroke-opacity:1"
         d="m 116.1051,79.766392 c -0.006,-0.21124 -0.27654,-1.113 -0.84774,-0.54958 -0.11574,0.11415 -0.52669,0.55217 -0.0643,1.29793 0.0829,0.1337 0.48668,0.47716 0.78928,-0.0877 0.13799,-0.25757 0.12565,-0.4884 0.12278,-0.66065 z"
         id="path143039"
         sodipodi:nodetypes="cssssc" />
      <path
         style="fill:#ffffff;stroke:none;stroke-width:0.1;stroke-linecap:butt;stroke-linejoin:miter;stroke-dasharray:none;stroke-opacity:1"
         d="m 115.38598,79.281122 c -0.0825,-0.10994 -0.4791,-0.25277 -0.53788,0.33326 -0.0263,0.26178 0.0703,0.44755 0.28063,0.43849 0.0645,-0.003 0.37468,-0.011 0.38002,-0.37418 5.8e-4,-0.0392 0.0351,-0.18709 -0.12277,-0.39757 z"
         id="path143041"
         sodipodi:nodetypes="sssss" />
      <g
         id="g143053"
         transform="translate(56.303506,-89.404709)"
         style="stroke:#70745a;stroke-width:0.2;stroke-dasharray:none;stroke-opacity:1">
        <path
           style="fill:#ffffff;stroke:#70745a;stroke-width:0.2;stroke-linecap:butt;stroke-linejoin:miter;stroke-dasharray:none;stroke-opacity:1"
           d="m 52.525674,180.43867 c 0,0 0.038,0.59926 -0.838975,0.99682 -0.09354,0 -0.879902,0.48527 -0.681121,1.65458 -0.0117,0.0351 -0.656877,0.49125 -0.317777,0.93558 0.03307,-0.0461 -0.746288,1.00838 0.387936,1.35917 0.222168,0.0468 0.695737,-0.006 0.906213,-0.19293 0.187086,0.12862 1.198534,0.50865 1.958584,-0.46188 0.760047,-0.97052 1.496708,-1.87088 1.414856,-3.34421 -0.03508,-0.63142 -0.187089,-1.41485 -0.701582,-1.6838 -0.05846,-0.0702 -0.502801,-1.57856 -1.192689,-0.44433 0,0 -0.572963,1.02899 -0.935445,1.181 z"
           id="path143043"
           sodipodi:nodetypes="ccccccssccc" />
        <path
           style="fill:#ffffff;stroke:#70745a;stroke-width:0.2;stroke-linecap:butt;stroke-linejoin:miter;stroke-dasharray:none;stroke-opacity:1"
           d="m 51.993139,185.19841 c -0.23386,-0.0935 -0.280633,-0.24555 -0.409255,-0.63142 -0.140316,-0.71327 0.584649,-0.90033 0.654809,-0.95883 0.935443,-0.57296 1.180997,-1.23946 1.180997,-1.23946 0,0 -0.625606,1.17697 -1.490891,1.41083 -0.116931,0.0935 -0.724912,0.55762 0.06434,1.41888 z"
           id="path143045"
           sodipodi:nodetypes="cccccc" />
        <path
           style="fill:none;stroke:#70745a;stroke-width:0.2;stroke-linecap:butt;stroke-linejoin:miter;stroke-dasharray:none;stroke-opacity:1"
           d="m 52.560223,182.30621 c 0,0 -1.438246,1.64872 -1.870887,1.71888"
           id="path143047" />
        <path
           style="fill:none;stroke:#70745a;stroke-width:0.2;stroke-linecap:butt;stroke-linejoin:miter;stroke-dasharray:none;stroke-opacity:1"
           d="m 53.624288,181.90865 c 0,0 -0.374176,0.52618 -1.297926,-0.40926 -0.04677,0.0351 -0.584653,1.13423 -1.297927,1.56687"
           id="path143049" />
        <path
           style="fill:none;stroke:#70745a;stroke-width:0.2;stroke-linecap:butt;stroke-linejoin:miter;stroke-dasharray:none;stroke-opacity:1"
           d="m 53.382863,180.43941 c 0,0 0.165922,0.11698 0.563481,-0.0819 0,0 -0.224125,0.15085 -0.446293,0.11577"
           id="path143051"
           sodipodi:nodetypes="ccc" />
      </g>
      <path
         style="color:#000000;fill:#737567;-inkscape-stroke:none"
         d="m 127.46688,71.086732 c 0,0 -0.0408,0.0366 0.0938,0.2729 0.1346,0.23626 0.32164,0.40297 0.87719,0.39174 l 0.0964,-0.14368 c -0.50252,0.0102 -0.69724,-0.16761 -0.79982,-0.34767 -0.10259,-0.18005 -0.0918,-0.36132 -0.0918,-0.36132 z"
         id="path143055"
         sodipodi:nodetypes="csccscc" />
      <path
         style="color:#000000;fill:#808274;-inkscape-stroke:none"
         d="m 128.72038,68.785552 -0.18924,-0.16719 c 0,0 0.0311,0.39997 -0.0603,0.77255 -0.0914,0.37259 -0.18978,0.73987 -0.66722,0.85355 l -0.0262,0.19823 c 0.56435,-0.13437 0.78597,-0.59213 0.88678,-1.00295 0.10081,-0.41082 0.10338,-0.71582 0.10338,-0.71582 z"
         id="path143057"
         sodipodi:nodetypes="ccsccscc" />
      <path
         style="color:#000000;fill:#6c6f5c;-inkscape-stroke:none"
         d="m 127.53433,67.843762 -0.16999,0.0186 c 0,0 -0.0167,0.0753 -0.0264,0.3157 -0.01,0.24043 0.0273,0.38399 -0.0216,0.52375 l 0.17484,0.15995 c 0.0668,-0.19097 0.036,-0.42848 0.046,-0.67588 0.01,-0.24741 -0.003,-0.3362 -0.003,-0.3362 z"
         id="path143059"
         sodipodi:nodetypes="ccsccccc" />
      <path
         style="fill:none;stroke:#826000;stroke-width:0.2;stroke-linecap:butt;stroke-linejoin:miter;stroke-dasharray:none;stroke-opacity:1"
         d="m 113.99921,83.467422 c 0,0 1.96784,1.78594 4.64674,1.25677 0.66146,-0.0992 2.26617,-0.7026 2.39779,-1.63711 0.0347,-0.24617 0.1571,-0.75241 -0.091,-1.31465 0.29414,-0.19143 0.28939,-0.50436 0.75241,-0.12402"
         id="path143061"
         sodipodi:nodetypes="ccscc" />
      <path
         style="fill:#ffffff;stroke:#826000;stroke-width:0.2;stroke-linecap:butt;stroke-linejoin:miter;stroke-dasharray:none;stroke-opacity:1"
         d="m 116.7275,84.818442 c 0,0 1.28623,1.69549 2.39122,1.67211 1.08161,-0.0702 1.37394,-0.36249 1.50256,-1.02899 0.12862,-0.66651 0.0642,-1.40252 -0.0144,-1.54732 -0.0636,-0.11722 -0.0261,-0.0357 -0.0261,-0.0357 0,0 -0.58578,0.4281 -1.49199,0.75551 -0.25725,0.076 -1.40145,0.24727 -2.37782,0.15957 z"
         id="path143063"
         sodipodi:nodetypes="ccsscccc" />
      <path
         style="fill:#ffffff;stroke:none;stroke-width:0.1;stroke-linecap:butt;stroke-linejoin:miter;stroke-dasharray:none;stroke-opacity:1"
         d="m 118.61021,78.528432 c -0.0692,-0.0922 -0.40196,-0.21207 -0.45128,0.27961 -0.022,0.21964 0.059,0.3755 0.23545,0.3679 0.0541,-0.003 0.31436,-0.009 0.31884,-0.31394 4.9e-4,-0.0329 0.0294,-0.15697 -0.10301,-0.33357 z"
         id="path143065"
         sodipodi:nodetypes="sssss" />
      <path
         style="fill:#ffffff;stroke:none;stroke-width:0.264583px;stroke-linecap:butt;stroke-linejoin:miter;stroke-opacity:1"
         d="m 121.95638,71.057162 -13.34492,3.9026 c 0,0 0.1819,0.92604 0.77721,1.27331 0.74414,0.1819 1.00873,0.44648 2.29857,0.31419 1.25677,-0.3638 11.64166,-3.27422 11.64166,-3.27422 0,0 -1.0914,-0.39687 -1.37252,-2.21588 z"
         id="path143067" />
      <path
         style="color:#000000;fill:#9c7c20;-inkscape-stroke:none"
         d="m 122.37421,70.596202 -14.18359,4.17578 0.0137,0.0859 c 0,0 0.0806,0.56223 0.56836,1.06835 0.48777,0.50613 1.38326,0.95534 2.96679,0.77149 h 0.006 l 0.0234,0.0389 c 0.14264,-0.0324 0.77143,-0.24884 1.68364,-0.49992 0.9122,-0.25107 2.08061,-0.57637 3.23242,-0.89648 2.30361,-0.64022 4.56635,-1.32994 4.56635,-1.32994 l -0.0781,-0.12709 c 0,0 -2.23952,0.62545 -4.54297,1.26562 -1.15172,0.32009 -2.31856,0.64354 -3.23046,0.89453 -0.90576,0.2493 -1.56044,0.42715 -1.68165,0.45508 -0.002,1.9e-4 -0.002,-1.9e-4 -0.004,0 -1.5353,0.17713 -2.37135,-0.23259 -2.79687,-0.71094 -0.38305,-0.4306 -0.45666,-0.8171 -0.47461,-0.88086 l 13.73437,-4.04492 0.0519,1.25919 0.18165,0.30089 z"
         id="path143069"
         sodipodi:nodetypes="cccscccssccssccsccccc" />
      <path
         style="color:#000000;fill:#afa87f;stroke-width:0.2;stroke-dasharray:none"
         d="m 122.16132,70.891122 -0.14649,0.0371 c 0,0 -0.0321,0.008 -13.49414,3.96094 l -0.0699,0.0254 0.008,0.0975 c 0.0588,0.22135 0.20886,0.52202 0.20886,0.52202 0.1583,0.17719 0.32893,0.37505 0.5584,0.53157 0,0 -0.28348,-0.54359 -0.49267,-1.03192 12.89452,-3.78622 13.2195,-3.88053 13.2207,-3.88086 -0.0106,0.0988 -0.0493,0.30179 0.0645,0.67968 0.13794,0.45826 0.47631,1.01826 1.24805,1.41016 l 0.22919,-0.0657 c -0.72498,-0.36815 -1.16067,-0.98532 -1.28583,-1.40112 -0.12516,-0.4158 -0.0723,-0.73437 -0.0723,-0.73437 z"
         id="path143071"
         sodipodi:nodetypes="cccccccccsccscc" />
      <path
         style="fill:none;stroke:#afa87f;stroke-width:0.2;stroke-linecap:butt;stroke-linejoin:miter;stroke-dasharray:none;stroke-opacity:1"
         d="m 110.30596,76.279682 3.55089,-1.14308"
         id="path143073"
         sodipodi:nodetypes="cc" />
      <path
         style="fill:none;stroke:#afa87f;stroke-width:0.2;stroke-linecap:butt;stroke-linejoin:miter;stroke-dasharray:none;stroke-opacity:1"
         d="m 116.4644,74.435022 5.20341,-1.48501"
         id="path143075" />
      <path
         style="fill:none;stroke:#afa87f;stroke-width:0.2;stroke-linecap:butt;stroke-linejoin:miter;stroke-dasharray:none;stroke-opacity:1"
         d="m 110.22032,75.697872 9.08549,-2.65432"
         id="path143077" />
      <path
         style="fill:#a8a578;fill-opacity:1;stroke:#a8a578;stroke-width:0.2;stroke-linecap:butt;stroke-linejoin:miter;stroke-dasharray:none;stroke-opacity:1"
         d="m 111.2493,74.867662 9.5883,-2.87649"
         id="path143079" />
      <path
         style="fill:#d13303;fill-opacity:1;stroke:#612b00;stroke-width:0.2;stroke-linecap:butt;stroke-linejoin:miter;stroke-dasharray:none;stroke-opacity:1"
         d="m 120.41655,73.098112 c 0,0 1.19268,-2.36199 2.61924,0.0702 0.53788,1.37978 1.333,3.8587 0.70158,6.40779 -0.39401,-1.16931 -0.3326,-1.01065 -0.37418,-1.21608 l -0.19878,-0.98222 c 0.0122,0.0529 -0.38242,2.20002 -0.97052,2.5257 -0.0935,0.0468 0.11693,-1.6838 -0.0234,-3.22728 -0.14032,-1.54348 -0.56127,-3.88208 -1.75395,-3.57807 z"
         id="path143081"
         sodipodi:nodetypes="cccsccscc" />
      <path
         style="fill:#6f5a21;fill-opacity:1;stroke:#563800;stroke-width:0.1;stroke-linecap:butt;stroke-linejoin:miter;stroke-dasharray:none;stroke-opacity:1"
         d="m 117.04971,74.279832 c 0,0 0.46683,-1.74133 1.66137,-0.58981 0.53548,0.7162 0.79635,0.87067 0.86501,1.41834 -0.32953,-0.1966 -1.222,-1.32003 -2.52638,-0.82853 z"
         id="path143083" />
      <path
         style="fill:#715e1a;fill-opacity:1;stroke:#3a2508;stroke-width:0.1;stroke-linecap:butt;stroke-linejoin:miter;stroke-dasharray:none;stroke-opacity:1"
         d="m 114.94553,73.705052 c 0,0 -0.79889,-1.62543 -1.5024,-0.12896 -0.46508,0.9893 -0.52202,1.40424 -0.50928,2.53623 0.14005,-0.17194 0.9931,-2.88013 2.01168,-2.40727 z"
         id="path143085"
         sodipodi:nodetypes="cscc" />
      <path
         style="fill:#f67939;fill-opacity:1;stroke:#f67939;stroke-width:0.04;stroke-linecap:butt;stroke-linejoin:miter;stroke-dasharray:none;stroke-opacity:1;filter:url(#filter13113)"
         d="m 121.57592,72.220582 c 0,0 0.98425,-0.0494 1.54469,1.74689 0.29113,0.77025 0.59462,2.28415 0.64571,2.85723 0.0399,0.4478 0.0105,1.91767 -0.056,2.07478 l -0.0804,-0.59342 c 0.0195,-0.27392 0.0187,-1.7688 -0.28513,-2.85606 -0.15301,-0.58417 -0.45345,-1.64184 -0.56043,-1.79629 -0.27922,-0.63355 -0.76159,-1.19192 -1.1982,-1.42728 z"
         id="path143087"
         sodipodi:nodetypes="ccscccccc" />
    </g>
  </g>
</svg>
